<svg width="305" height="95" viewBox="0 0 305 95" fill="none" xmlns="http://www.w3.org/2000/svg">
<path d="M0.912 93V26.312H18.448V31.816C23.4827 27.2933 29.712 25.032 37.136 25.032C42.3413 25.032 46.9067 26.184 50.832 28.488C54.8427 30.7067 57.9573 33.8213 60.176 37.832C62.3947 41.7573 63.504 46.3653 63.504 51.656V93H45.968V54.216C45.968 49.864 44.7307 46.4507 42.256 43.976C39.7813 41.416 36.4107 40.136 32.144 40.136C29.1573 40.136 26.512 40.7333 24.208 41.928C21.904 43.0373 19.984 44.6587 18.448 46.792V93H0.912ZM109.427 94.28C102.771 94.28 96.7123 92.744 91.251 89.672C85.875 86.6 81.6083 82.4613 78.451 77.256C75.2937 72.0507 73.715 66.2053 73.715 59.72C73.715 53.2347 75.2083 47.3893 78.195 42.184C81.267 36.9787 85.4057 32.84 90.611 29.768C95.8163 26.696 101.619 25.16 108.019 25.16C114.419 25.16 120.094 26.7387 125.043 29.896C129.992 33.0533 133.875 37.32 136.691 42.696C139.592 48.072 141.043 54.1733 141.043 61V65.608H91.635C92.403 68.2533 93.6403 70.6427 95.347 72.776C97.139 74.9093 99.315 76.5733 101.875 77.768C104.52 78.9627 107.336 79.56 110.323 79.56C113.31 79.56 116.04 79.0907 118.515 78.152C121.075 77.2133 123.251 75.8907 125.043 74.184L136.563 84.68C132.467 88.008 128.243 90.44 123.891 91.976C119.624 93.512 114.803 94.28 109.427 94.28ZM91.379 53.064H123.763C123.166 50.4187 122.056 48.1147 120.435 46.152C118.899 44.104 117.022 42.5253 114.803 41.416C112.67 40.2213 110.28 39.624 107.635 39.624C104.904 39.624 102.43 40.1787 100.211 41.288C97.9923 42.3973 96.115 43.976 94.579 46.024C93.1283 47.9867 92.0617 50.3333 91.379 53.064ZM151.787 93V3.39999L169.323 0.455994V93H151.787ZM207.997 94.28C201.853 94.28 196.178 93.512 190.973 91.976C185.768 90.3547 181.245 88.0507 177.405 85.064L186.109 73.416C189.949 75.976 193.618 77.896 197.117 79.176C200.701 80.456 204.242 81.096 207.741 81.096C211.666 81.096 214.781 80.456 217.085 79.176C219.474 77.8107 220.669 76.0613 220.669 73.928C220.669 72.2213 219.986 70.856 218.621 69.832C217.341 68.808 215.25 68.0827 212.349 67.656L199.549 65.736C192.893 64.712 187.858 62.5787 184.445 59.336C181.032 56.008 179.325 51.656 179.325 46.28C179.325 41.928 180.434 38.216 182.653 35.144C184.957 31.9867 188.157 29.5547 192.253 27.848C196.434 26.056 201.384 25.16 207.101 25.16C211.965 25.16 216.701 25.8427 221.309 27.208C226.002 28.5733 230.397 30.664 234.493 33.48L226.045 44.872C222.376 42.568 218.877 40.904 215.549 39.88C212.221 38.856 208.85 38.344 205.437 38.344C202.28 38.344 199.72 38.9413 197.757 40.136C195.88 41.3307 194.941 42.9093 194.941 44.872C194.941 46.664 195.624 48.072 196.989 49.096C198.354 50.12 200.701 50.8453 204.029 51.272L216.701 53.192C223.357 54.1307 228.434 56.264 231.933 59.592C235.432 62.8347 237.181 67.0587 237.181 72.264C237.181 76.5307 235.901 80.328 233.341 83.656C230.781 86.8987 227.325 89.5013 222.973 91.464C218.621 93.3413 213.629 94.28 207.997 94.28ZM267.785 94.152C263.006 94.152 258.782 93.2987 255.113 91.592C251.444 89.8 248.585 87.368 246.537 84.296C244.489 81.224 243.465 77.6827 243.465 73.672C243.465 67.272 245.854 62.3227 250.633 58.824C255.497 55.24 262.153 53.448 270.601 53.448C276.404 53.448 281.865 54.344 286.985 56.136V51.272C286.985 47.432 285.79 44.5307 283.401 42.568C281.012 40.6053 277.513 39.624 272.905 39.624C270.089 39.624 267.06 40.0933 263.817 41.032C260.574 41.8853 256.82 43.2507 252.553 45.128L246.153 32.2C251.444 29.8107 256.478 28.0187 261.257 26.824C266.121 25.6293 270.985 25.032 275.849 25.032C284.809 25.032 291.764 27.208 296.713 31.56C301.748 35.8267 304.265 41.8853 304.265 49.736V93H286.985V88.264C284.254 90.312 281.31 91.8053 278.153 92.744C274.996 93.6827 271.54 94.152 267.785 94.152ZM260.105 73.288C260.105 75.848 261.214 77.896 263.433 79.432C265.652 80.8827 268.596 81.608 272.265 81.608C275.166 81.608 277.854 81.2667 280.329 80.584C282.804 79.816 285.022 78.7067 286.985 77.256V67.528C284.852 66.6747 282.633 66.0347 280.329 65.608C278.025 65.1813 275.55 64.968 272.905 64.968C268.894 64.968 265.737 65.736 263.433 67.272C261.214 68.7227 260.105 70.728 260.105 73.288Z" fill="white"/>
</svg>
