<svg width="112" height="119" viewBox="0 0 112 119" fill="none" xmlns="http://www.w3.org/2000/svg">
<rect width="112" height="119" fill="black"/>
<path d="M27.912 93V26.312H45.448V31.816C50.4827 27.2933 56.712 25.032 64.136 25.032C69.3413 25.032 73.9067 26.184 77.832 28.488C81.8427 30.7067 84.9573 33.8213 87.176 37.832C89.3947 41.7573 90.504 46.3653 90.504 51.656V93H72.968V54.216C72.968 49.864 71.7307 46.4507 69.256 43.976C66.7813 41.416 63.4107 40.136 59.144 40.136C56.1573 40.136 53.512 40.7333 51.208 41.928C48.904 43.0373 46.984 44.6587 45.448 46.792V93H27.912Z" fill="white"/>
</svg>
